<svg width="279" height="60" viewBox="0 0 279 60" fill="none" xmlns="http://www.w3.org/2000/svg">
<path d="M16.9646 55.6657C21.0226 55.6634 25.0823 55.7303 29.1387 55.6511C39.9662 55.4384 49.752 48.8903 53.677 39.3063C56.3104 32.8758 56.3076 26.349 53.5375 20.0768C50.3646 12.8912 44.6741 7.9369 36.7807 5.4542C33.4285 4.3999 29.9603 3.95201 26.4232 4.0769C22.0182 4.23254 17.5715 3.6073 13.2114 4.37358C5.21859 5.77835 1.89479 14.2798 6.96544 20.2868C8.86154 22.5334 11.4797 23.7474 14.5705 23.7733C19.0458 23.8108 23.522 23.7762 27.9979 23.7697C31.897 23.7639 34.7568 26.3836 34.7726 29.9208C34.7876 33.3402 31.9116 36.0208 28.137 35.9839C20.1408 35.9057 0.0915594 35.9985 0.0915594 35.9985L0.0291067 31.7963C0.0291067 31.7963 19.0027 31.8434 26.4621 31.838C27.1169 31.8376 27.787 31.8657 28.4221 31.7464C29.4925 31.5456 30.3991 30.9943 30.306 29.8487C30.2113 28.6838 29.3968 28.1069 28.1068 28.1135C24.0488 28.1337 19.9905 28.139 15.9327 28.1089C13.3628 28.0897 10.8876 27.7405 8.49696 26.6682C4.60562 24.9227 2.03997 22.068 0.749545 18.3197C-1.66888 11.295 1.93453 4.02752 9.11683 1.03794C10.6926 0.381955 12.3332 -0.0196277 14.1098 0.00073972C19.1819 0.0587675 24.2548 0.0128426 29.3277 0.0182226C44.5879 0.0351314 58.0686 11.8472 59.7609 26.1436C60.9924 36.5477 57.4502 45.1852 49.512 52.2484C45.5567 55.7682 40.7955 57.9884 35.4647 59.1165C30.2276 60.224 24.9116 60.0157 19.6329 59.9177C14.3868 59.8201 0.0473552 59.8906 0.0473552 59.8906L0.044518 55.6173C0.0447208 55.6173 12.6081 55.6677 16.9646 55.6657Z" fill="url(#paint0_linear_90_115)"/>
<path d="M16.9851 52.0425C12.5686 52.0425 0.0859375 52.0642 0.0859375 52.0642L0.113716 47.7473C0.113716 47.7473 19.537 47.8795 26.8154 47.9098C32.6911 47.9354 38.0509 46.5208 42.0598 42.1991C46.2746 37.6556 48.1431 32.4467 46.6388 26.3185C44.6908 18.3819 39.2419 14.0081 31.1016 12.4583C28.9206 12.043 26.5812 12.3691 24.3147 12.3651C21.3903 12.3599 18.4644 12.4152 15.5418 12.3435C14.1267 12.309 13.0622 12.7803 12.9813 14.0921C12.9008 15.39 14.101 15.9153 15.2938 15.9695C17.5563 16.0721 19.8272 15.9935 22.0925 16.056C25.4179 16.1474 28.7661 15.7501 32.0659 16.4385C39.1919 17.9252 44.1082 25.155 43.0635 32.0223C41.9694 39.2162 35.4163 44.2579 27.5928 44.2629C19.7144 44.2681 0.106213 44.3129 0.106213 44.3129L0.143929 39.8893C0.143929 39.8893 19.9079 39.8893 27.9649 39.9156C33.1903 39.9325 37.7611 36.5173 38.6136 31.8741C39.5031 27.0277 36.5617 22.3119 31.5381 20.7345C30.1481 20.298 28.6649 20.1043 27.1569 20.1241C23.1589 20.1763 19.1599 20.1967 15.1614 20.1573C10.9534 20.1156 8.53838 17.7551 8.56028 13.8175C8.57894 10.5234 11.4451 8.02892 15.2669 8.01508C19.6234 7.99933 23.9805 7.99183 28.3372 8.01316C39.4119 8.06715 48.792 15.1337 51.0752 25.3842C53.8123 37.6767 45.9177 48.9169 33.2288 51.6317C28.9755 52.5417 24.5539 51.9796 20.2078 52.0471C19.1339 52.064 18.0592 52.0494 16.9849 52.0494C16.9852 52.0469 16.9851 52.0446 16.9851 52.0425Z" fill="url(#paint1_linear_90_115)"/>
<path d="M84.16 33V7.476H93.232C95.08 7.476 96.712 7.812 98.128 8.484C99.544 9.156 100.72 10.068 101.656 11.22C102.616 12.372 103.336 13.728 103.816 15.288C104.32 16.848 104.572 18.504 104.572 20.256C104.572 22.032 104.308 23.7 103.78 25.26C103.276 26.796 102.568 28.14 101.656 29.292C100.744 30.444 99.664 31.356 98.416 32.028C97.168 32.676 95.824 33 94.384 33H84.16ZM93.088 29.508C94.456 29.508 95.62 29.256 96.58 28.752C97.54 28.248 98.332 27.576 98.956 26.736C99.58 25.896 100.036 24.912 100.324 23.784C100.612 22.656 100.756 21.48 100.756 20.256C100.756 19.032 100.612 17.856 100.324 16.728C100.036 15.576 99.58 14.568 98.956 13.704C98.356 12.84 97.564 12.156 96.58 11.652C95.62 11.124 94.456 10.86 93.088 10.86H87.94V29.508H93.088ZM112.05 33H108.558V15.756H112.014L112.05 33ZM110.286 12.012C109.662 12.012 109.134 11.796 108.702 11.364C108.27 10.908 108.054 10.368 108.054 9.744C108.054 9.12 108.27 8.592 108.702 8.16C109.134 7.728 109.662 7.512 110.286 7.512C110.91 7.512 111.438 7.728 111.87 8.16C112.302 8.592 112.518 9.12 112.518 9.744C112.518 10.368 112.302 10.908 111.87 11.364C111.438 11.796 110.91 12.012 110.286 12.012ZM132.317 15.756V33H129.365L128.825 31.02C128.225 31.812 127.457 32.412 126.521 32.82C125.585 33.228 124.637 33.432 123.677 33.432C122.477 33.432 121.349 33.204 120.293 32.748C119.261 32.268 118.349 31.62 117.557 30.804C116.789 29.988 116.177 29.028 115.721 27.924C115.265 26.82 115.037 25.644 115.037 24.396C115.037 23.148 115.265 21.972 115.721 20.868C116.177 19.764 116.789 18.804 117.557 17.988C118.349 17.172 119.261 16.536 120.293 16.08C121.349 15.6 122.477 15.36 123.677 15.36C124.637 15.36 125.561 15.552 126.449 15.936C127.337 16.296 128.129 16.872 128.825 17.664L129.365 15.756H132.317ZM123.677 30.336C124.373 30.336 125.033 30.18 125.657 29.868C126.281 29.556 126.821 29.136 127.277 28.608C127.733 28.056 128.093 27.42 128.357 26.7C128.621 25.98 128.753 25.212 128.753 24.396C128.753 23.58 128.621 22.812 128.357 22.092C128.093 21.372 127.733 20.748 127.277 20.22C126.821 19.668 126.281 19.236 125.657 18.924C125.033 18.612 124.373 18.456 123.677 18.456C122.981 18.456 122.321 18.612 121.697 18.924C121.073 19.236 120.533 19.668 120.077 20.22C119.621 20.748 119.261 21.372 118.997 22.092C118.733 22.812 118.601 23.58 118.601 24.396C118.601 25.212 118.733 25.98 118.997 26.7C119.261 27.42 119.621 28.056 120.077 28.608C120.533 29.136 121.073 29.556 121.697 29.868C122.321 30.18 122.981 30.336 123.677 30.336ZM143.719 32.136C142.519 32.136 141.415 31.92 140.407 31.488C139.399 31.032 138.523 30.42 137.779 29.652C137.035 28.86 136.447 27.96 136.015 26.952C135.607 25.92 135.403 24.828 135.403 23.676C135.403 22.524 135.607 21.444 136.015 20.436C136.447 19.428 137.035 18.552 137.779 17.808C138.523 17.04 139.399 16.44 140.407 16.008C141.415 15.576 142.519 15.36 143.719 15.36C144.919 15.36 145.963 15.54 146.851 15.9C147.739 16.26 148.519 16.776 149.191 17.448L149.911 15.756H152.647C152.647 15.828 152.647 15.924 152.647 16.044C152.647 16.14 152.647 16.344 152.647 16.656C152.647 16.968 152.647 17.412 152.647 17.988C152.647 18.564 152.647 19.356 152.647 20.364C152.647 21.372 152.647 22.632 152.647 24.144C152.671 25.656 152.683 27.492 152.683 29.652C152.683 30.372 152.659 31.08 152.611 31.776C152.563 32.448 152.455 33.096 152.287 33.72C152.143 34.368 151.915 34.98 151.603 35.556C151.315 36.156 150.919 36.732 150.415 37.284C149.455 38.292 148.363 38.964 147.139 39.3C145.939 39.66 144.667 39.84 143.323 39.84C142.171 39.84 141.079 39.696 140.047 39.408C139.039 39.12 138.127 38.736 137.311 38.256V34.368C137.791 35.064 138.535 35.628 139.543 36.06C140.575 36.492 141.739 36.708 143.035 36.708C143.899 36.708 144.703 36.588 145.447 36.348C146.191 36.132 146.839 35.784 147.391 35.304C147.943 34.848 148.375 34.248 148.687 33.504C149.023 32.76 149.191 31.872 149.191 30.84V30.156C148.903 30.42 148.543 30.672 148.111 30.912C147.703 31.152 147.247 31.368 146.743 31.56C146.263 31.728 145.759 31.872 145.231 31.992C144.703 32.088 144.199 32.136 143.719 32.136ZM144.043 18.528C143.347 18.528 142.687 18.66 142.063 18.924C141.439 19.188 140.887 19.56 140.407 20.04C139.951 20.496 139.591 21.036 139.327 21.66C139.063 22.284 138.931 22.956 138.931 23.676C138.931 24.396 139.063 25.08 139.327 25.728C139.591 26.352 139.951 26.904 140.407 27.384C140.887 27.84 141.439 28.212 142.063 28.5C142.687 28.764 143.347 28.896 144.043 28.896C144.739 28.896 145.399 28.788 146.023 28.572C146.647 28.356 147.187 28.032 147.643 27.6C148.099 27.168 148.459 26.628 148.723 25.98C148.987 25.332 149.119 24.564 149.119 23.676C149.119 22.74 148.987 21.948 148.723 21.3C148.459 20.628 148.099 20.088 147.643 19.68C147.187 19.272 146.647 18.984 146.023 18.816C145.399 18.624 144.739 18.528 144.043 18.528ZM160.561 33H157.069V15.756H159.841L160.561 17.268C161.137 16.716 161.833 16.26 162.649 15.9C163.465 15.54 164.353 15.36 165.313 15.36C165.937 15.36 166.645 15.456 167.437 15.648C168.229 15.84 168.961 16.2 169.633 16.728C170.329 17.256 170.905 17.988 171.361 18.924C171.841 19.86 172.081 21.072 172.081 22.56V33H168.769V22.524C168.769 21.78 168.649 21.156 168.409 20.652C168.193 20.124 167.893 19.704 167.509 19.392C167.149 19.08 166.729 18.864 166.249 18.744C165.793 18.6 165.313 18.528 164.809 18.528C164.425 18.528 163.981 18.6 163.477 18.744C162.997 18.888 162.541 19.128 162.109 19.464C161.677 19.776 161.305 20.184 160.993 20.688C160.705 21.168 160.561 21.768 160.561 22.488V33ZM183.931 33.432C182.731 33.432 181.603 33.204 180.547 32.748C179.515 32.268 178.603 31.62 177.811 30.804C177.043 29.988 176.431 29.028 175.975 27.924C175.519 26.82 175.291 25.644 175.291 24.396C175.291 23.148 175.519 21.972 175.975 20.868C176.431 19.764 177.043 18.804 177.811 17.988C178.603 17.172 179.515 16.536 180.547 16.08C181.603 15.6 182.731 15.36 183.931 15.36C185.107 15.36 186.223 15.6 187.279 16.08C188.335 16.536 189.247 17.172 190.015 17.988C190.807 18.804 191.431 19.764 191.887 20.868C192.343 21.972 192.571 23.148 192.571 24.396C192.571 25.644 192.343 26.82 191.887 27.924C191.431 29.028 190.807 29.988 190.015 30.804C189.247 31.62 188.335 32.268 187.279 32.748C186.223 33.204 185.107 33.432 183.931 33.432ZM183.931 18.492C183.235 18.492 182.575 18.648 181.951 18.96C181.327 19.272 180.775 19.692 180.295 20.22C179.839 20.748 179.479 21.372 179.215 22.092C178.951 22.812 178.819 23.58 178.819 24.396C178.819 25.212 178.951 25.98 179.215 26.7C179.479 27.42 179.839 28.056 180.295 28.608C180.775 29.136 181.327 29.556 181.951 29.868C182.575 30.18 183.235 30.336 183.931 30.336C184.627 30.336 185.287 30.18 185.911 29.868C186.535 29.556 187.075 29.136 187.531 28.608C187.987 28.056 188.347 27.42 188.611 26.7C188.875 25.98 189.007 25.212 189.007 24.396C189.007 23.58 188.875 22.812 188.611 22.092C188.347 21.372 187.987 20.748 187.531 20.22C187.075 19.692 186.535 19.272 185.911 18.96C185.287 18.648 184.627 18.492 183.931 18.492ZM203.419 29.4C203.635 29.208 203.827 28.992 203.995 28.752C204.163 28.512 204.247 28.236 204.247 27.924C204.247 27.54 204.103 27.216 203.815 26.952C203.551 26.688 203.215 26.472 202.807 26.304C202.423 26.112 202.015 25.968 201.583 25.872C201.151 25.776 200.791 25.692 200.503 25.62C199.711 25.428 198.967 25.2 198.271 24.936C197.575 24.648 196.963 24.312 196.435 23.928C195.931 23.52 195.523 23.052 195.211 22.524C194.923 21.972 194.779 21.324 194.779 20.58C194.779 19.884 194.947 19.236 195.283 18.636C195.619 18.012 196.063 17.472 196.615 17.016C197.191 16.536 197.851 16.164 198.595 15.9C199.363 15.612 200.167 15.468 201.007 15.468C201.751 15.468 202.459 15.576 203.131 15.792C203.803 16.008 204.403 16.308 204.931 16.692C205.483 17.052 205.939 17.496 206.299 18.024C206.683 18.552 206.935 19.14 207.055 19.788L203.923 20.544C203.779 19.968 203.467 19.488 202.987 19.104C202.507 18.72 201.847 18.528 201.007 18.528C200.719 18.528 200.419 18.576 200.107 18.672C199.795 18.744 199.507 18.864 199.243 19.032C198.979 19.2 198.751 19.404 198.559 19.644C198.391 19.884 198.307 20.16 198.307 20.472C198.307 20.808 198.403 21.096 198.595 21.336C198.811 21.576 199.063 21.78 199.351 21.948C199.639 22.092 199.951 22.212 200.287 22.308C200.623 22.404 200.935 22.488 201.223 22.56C202.495 22.872 203.551 23.208 204.391 23.568C205.231 23.928 205.903 24.324 206.407 24.756C206.911 25.188 207.259 25.668 207.451 26.196C207.667 26.7 207.775 27.276 207.775 27.924C207.775 28.692 207.595 29.412 207.235 30.084C206.899 30.756 206.419 31.344 205.795 31.848C205.195 32.328 204.463 32.712 203.599 33C202.759 33.264 201.847 33.396 200.863 33.396C199.375 33.396 198.043 33.036 196.867 32.316C195.715 31.572 194.935 30.588 194.527 29.364L197.479 28.032C197.863 28.872 198.355 29.448 198.955 29.76C199.555 30.048 200.239 30.192 201.007 30.192C201.967 30.192 202.771 29.928 203.419 29.4ZM218.42 33.432C217.22 33.432 216.092 33.204 215.036 32.748C214.004 32.268 213.092 31.62 212.3 30.804C211.532 29.988 210.92 29.028 210.464 27.924C210.008 26.82 209.78 25.644 209.78 24.396C209.78 23.148 210.008 21.972 210.464 20.868C210.92 19.764 211.532 18.804 212.3 17.988C213.092 17.172 214.004 16.536 215.036 16.08C216.092 15.6 217.22 15.36 218.42 15.36C219.596 15.36 220.712 15.6 221.768 16.08C222.824 16.536 223.736 17.172 224.504 17.988C225.296 18.804 225.92 19.764 226.376 20.868C226.832 21.972 227.06 23.148 227.06 24.396C227.06 25.644 226.832 26.82 226.376 27.924C225.92 29.028 225.296 29.988 224.504 30.804C223.736 31.62 222.824 32.268 221.768 32.748C220.712 33.204 219.596 33.432 218.42 33.432ZM218.42 18.492C217.724 18.492 217.064 18.648 216.44 18.96C215.816 19.272 215.264 19.692 214.784 20.22C214.328 20.748 213.968 21.372 213.704 22.092C213.44 22.812 213.308 23.58 213.308 24.396C213.308 25.212 213.44 25.98 213.704 26.7C213.968 27.42 214.328 28.056 214.784 28.608C215.264 29.136 215.816 29.556 216.44 29.868C217.064 30.18 217.724 30.336 218.42 30.336C219.116 30.336 219.776 30.18 220.4 29.868C221.024 29.556 221.564 29.136 222.02 28.608C222.476 28.056 222.836 27.42 223.1 26.7C223.364 25.98 223.496 25.212 223.496 24.396C223.496 23.58 223.364 22.812 223.1 22.092C222.836 21.372 222.476 20.748 222.02 20.22C221.564 19.692 221.024 19.272 220.4 18.96C219.776 18.648 219.116 18.492 218.42 18.492ZM232.363 33V18.888H229.411V16.476L232.363 15.756V13.668C232.363 12.444 232.519 11.388 232.831 10.5C233.143 9.588 233.563 8.844 234.091 8.268C234.643 7.692 235.267 7.272 235.963 7.008C236.659 6.72 237.403 6.576 238.195 6.576C239.179 6.576 240.175 6.78 241.183 7.188V9.744C240.319 9.48 239.575 9.348 238.951 9.348C237.967 9.348 237.199 9.648 236.647 10.248C236.119 10.848 235.855 11.808 235.855 13.128V15.756H241.183V18.888H235.855V33H232.363ZM252.915 32.964C251.931 33.3 250.959 33.504 249.999 33.576C249.039 33.648 248.175 33.504 247.407 33.144C246.639 32.808 246.015 32.208 245.535 31.344C245.055 30.456 244.815 29.22 244.815 27.636V18.888H242.295V16.476L244.815 15.756V11.148H248.307V15.756H252.987V18.888H248.307V28.176C248.307 28.752 248.367 29.208 248.487 29.544C248.631 29.88 248.859 30.132 249.171 30.3C249.483 30.468 249.891 30.552 250.395 30.552C250.899 30.552 251.511 30.504 252.231 30.408L252.915 32.964Z" fill="white"/>
<path d="M90.9414 57H89.7793V52.29H84.5293V57H83.3672V47.0059H84.5293V51.2646H89.7793V47.0059H90.9414V57ZM96.4033 49.3711C97.0413 49.3711 97.5882 49.5124 98.0439 49.7949C98.4997 50.0775 98.8483 50.474 99.0898 50.9844C99.3314 51.4902 99.4521 52.0827 99.4521 52.7617V53.4658H94.2773C94.291 54.3454 94.5098 55.0153 94.9336 55.4756C95.3574 55.9359 95.9544 56.166 96.7246 56.166C97.1986 56.166 97.6178 56.1227 97.9824 56.0361C98.347 55.9495 98.7253 55.8219 99.1172 55.6533V56.6514C98.7389 56.82 98.363 56.943 97.9893 57.0205C97.6201 57.098 97.1826 57.1367 96.6768 57.1367C95.9567 57.1367 95.3278 56.9909 94.79 56.6992C94.2568 56.403 93.8421 55.9701 93.5459 55.4004C93.2497 54.8307 93.1016 54.1335 93.1016 53.3086C93.1016 52.502 93.236 51.8047 93.5049 51.2168C93.7783 50.6243 94.1611 50.1686 94.6533 49.8496C95.1501 49.5306 95.7334 49.3711 96.4033 49.3711ZM96.3896 50.3008C95.7835 50.3008 95.3005 50.499 94.9404 50.8955C94.5804 51.292 94.3662 51.8457 94.2979 52.5566H98.2627C98.2581 52.11 98.1875 51.7181 98.0508 51.3809C97.9186 51.0391 97.7158 50.7747 97.4424 50.5879C97.1689 50.3965 96.818 50.3008 96.3896 50.3008ZM104.183 49.3848C105.076 49.3848 105.739 49.5853 106.172 49.9863C106.605 50.3874 106.821 51.0277 106.821 51.9072V57H105.994L105.775 55.8926H105.721C105.511 56.166 105.292 56.3962 105.064 56.583C104.837 56.7653 104.572 56.9043 104.271 57C103.975 57.0911 103.611 57.1367 103.178 57.1367C102.722 57.1367 102.316 57.057 101.961 56.8975C101.61 56.738 101.332 56.4964 101.127 56.1729C100.926 55.8493 100.826 55.4391 100.826 54.9424C100.826 54.195 101.122 53.6208 101.715 53.2197C102.307 52.8187 103.21 52.5999 104.422 52.5635L105.714 52.5088V52.0508C105.714 51.4036 105.575 50.9502 105.297 50.6904C105.019 50.4307 104.627 50.3008 104.121 50.3008C103.729 50.3008 103.355 50.3577 103 50.4717C102.645 50.5856 102.307 50.7201 101.988 50.875L101.64 50.0137C101.977 49.8405 102.364 49.6924 102.802 49.5693C103.239 49.4463 103.7 49.3848 104.183 49.3848ZM105.7 53.3086L104.559 53.3564C103.624 53.3929 102.966 53.5456 102.583 53.8145C102.2 54.0833 102.009 54.4639 102.009 54.9561C102.009 55.3844 102.139 55.7012 102.398 55.9062C102.658 56.1113 103.002 56.2139 103.431 56.2139C104.096 56.2139 104.641 56.0293 105.064 55.6602C105.488 55.291 105.7 54.7373 105.7 53.999V53.3086ZM110.301 57H109.159V46.3633H110.301V57ZM115.12 56.207C115.307 56.207 115.498 56.1911 115.694 56.1592C115.89 56.1273 116.05 56.0885 116.173 56.043V56.9248C116.041 56.984 115.856 57.0342 115.619 57.0752C115.387 57.1162 115.159 57.1367 114.936 57.1367C114.539 57.1367 114.179 57.0684 113.855 56.9316C113.532 56.7904 113.272 56.5534 113.076 56.2207C112.885 55.888 112.789 55.4277 112.789 54.8398V50.3965H111.723V49.8428L112.796 49.3984L113.247 47.7715H113.931V49.5078H116.125V50.3965H113.931V54.8057C113.931 55.2751 114.038 55.626 114.252 55.8584C114.471 56.0908 114.76 56.207 115.12 56.207ZM118.825 46.3633V49.542C118.825 49.7243 118.821 49.9089 118.812 50.0957C118.802 50.278 118.786 50.4466 118.764 50.6016H118.839C118.994 50.3372 119.19 50.1162 119.427 49.9385C119.668 49.7562 119.942 49.6195 120.247 49.5283C120.552 49.4326 120.876 49.3848 121.218 49.3848C121.819 49.3848 122.321 49.4805 122.722 49.6719C123.127 49.8633 123.43 50.1595 123.631 50.5605C123.836 50.9616 123.938 51.4811 123.938 52.1191V57H122.817V52.1943C122.817 51.57 122.674 51.1029 122.387 50.793C122.104 50.4831 121.669 50.3281 121.081 50.3281C120.525 50.3281 120.081 50.4352 119.748 50.6494C119.42 50.859 119.183 51.1689 119.037 51.5791C118.896 51.9893 118.825 52.4906 118.825 53.083V57H117.69V46.3633H118.825ZM129.277 57.1367C128.603 57.1367 128.008 56.9977 127.493 56.7197C126.978 56.4417 126.577 56.0179 126.29 55.4482C126.003 54.8786 125.859 54.1608 125.859 53.2949C125.859 52.388 126.01 51.6475 126.311 51.0732C126.616 50.4945 127.035 50.0661 127.568 49.7881C128.102 49.5101 128.708 49.3711 129.387 49.3711C129.76 49.3711 130.12 49.4098 130.467 49.4873C130.818 49.5602 131.105 49.6536 131.328 49.7676L130.986 50.7178C130.758 50.6266 130.494 50.5446 130.193 50.4717C129.897 50.3988 129.619 50.3623 129.359 50.3623C128.84 50.3623 128.407 50.474 128.061 50.6973C127.719 50.9206 127.461 51.2487 127.288 51.6816C127.119 52.1146 127.035 52.6478 127.035 53.2812C127.035 53.8874 127.117 54.4046 127.281 54.833C127.45 55.2614 127.698 55.5895 128.026 55.8174C128.359 56.0407 128.774 56.1523 129.271 56.1523C129.667 56.1523 130.025 56.1113 130.344 56.0293C130.663 55.9427 130.952 55.8424 131.212 55.7285V56.7402C130.961 56.8678 130.681 56.9658 130.371 57.0342C130.066 57.1025 129.701 57.1367 129.277 57.1367ZM135.792 49.3848C136.685 49.3848 137.348 49.5853 137.781 49.9863C138.214 50.3874 138.431 51.0277 138.431 51.9072V57H137.604L137.385 55.8926H137.33C137.12 56.166 136.902 56.3962 136.674 56.583C136.446 56.7653 136.182 56.9043 135.881 57C135.585 57.0911 135.22 57.1367 134.787 57.1367C134.331 57.1367 133.926 57.057 133.57 56.8975C133.219 56.738 132.941 56.4964 132.736 56.1729C132.536 55.8493 132.436 55.4391 132.436 54.9424C132.436 54.195 132.732 53.6208 133.324 53.2197C133.917 52.8187 134.819 52.5999 136.031 52.5635L137.323 52.5088V52.0508C137.323 51.4036 137.184 50.9502 136.906 50.6904C136.628 50.4307 136.236 50.3008 135.73 50.3008C135.339 50.3008 134.965 50.3577 134.609 50.4717C134.254 50.5856 133.917 50.7201 133.598 50.875L133.249 50.0137C133.586 49.8405 133.974 49.6924 134.411 49.5693C134.849 49.4463 135.309 49.3848 135.792 49.3848ZM137.31 53.3086L136.168 53.3564C135.234 53.3929 134.575 53.5456 134.192 53.8145C133.81 54.0833 133.618 54.4639 133.618 54.9561C133.618 55.3844 133.748 55.7012 134.008 55.9062C134.268 56.1113 134.612 56.2139 135.04 56.2139C135.705 56.2139 136.25 56.0293 136.674 55.6602C137.098 55.291 137.31 54.7373 137.31 53.999V53.3086ZM144.173 49.3711C144.323 49.3711 144.48 49.3802 144.645 49.3984C144.809 49.4121 144.954 49.4326 145.082 49.46L144.938 50.5127C144.815 50.4808 144.679 50.4557 144.528 50.4375C144.378 50.4193 144.237 50.4102 144.104 50.4102C143.804 50.4102 143.519 50.4717 143.25 50.5947C142.986 50.7132 142.753 50.8864 142.553 51.1143C142.352 51.3376 142.195 51.6087 142.081 51.9277C141.967 52.2422 141.91 52.5931 141.91 52.9805V57H140.769V49.5078H141.712L141.835 50.8887H141.883C142.038 50.6107 142.225 50.3577 142.443 50.1299C142.662 49.8975 142.915 49.7129 143.202 49.5762C143.494 49.4395 143.817 49.3711 144.173 49.3711ZM149.382 49.3711C150.02 49.3711 150.567 49.5124 151.022 49.7949C151.478 50.0775 151.827 50.474 152.068 50.9844C152.31 51.4902 152.431 52.0827 152.431 52.7617V53.4658H147.256C147.27 54.3454 147.488 55.0153 147.912 55.4756C148.336 55.9359 148.933 56.166 149.703 56.166C150.177 56.166 150.596 56.1227 150.961 56.0361C151.326 55.9495 151.704 55.8219 152.096 55.6533V56.6514C151.717 56.82 151.341 56.943 150.968 57.0205C150.599 57.098 150.161 57.1367 149.655 57.1367C148.935 57.1367 148.306 56.9909 147.769 56.6992C147.235 56.403 146.821 55.9701 146.524 55.4004C146.228 54.8307 146.08 54.1335 146.08 53.3086C146.08 52.502 146.215 51.8047 146.483 51.2168C146.757 50.6243 147.14 50.1686 147.632 49.8496C148.129 49.5306 148.712 49.3711 149.382 49.3711ZM149.368 50.3008C148.762 50.3008 148.279 50.499 147.919 50.8955C147.559 51.292 147.345 51.8457 147.276 52.5566H151.241C151.237 52.11 151.166 51.7181 151.029 51.3809C150.897 51.0391 150.694 50.7747 150.421 50.5879C150.147 50.3965 149.797 50.3008 149.368 50.3008Z" fill="white"/>
<defs>
<linearGradient id="paint0_linear_90_115" x1="-1.63993e-06" y1="52" x2="51.5" y2="52" gradientUnits="userSpaceOnUse">
<stop stop-color="#46D7F7"/>
<stop offset="1" stop-color="#2B6BDB"/>
</linearGradient>
<linearGradient id="paint1_linear_90_115" x1="-2" y1="52.1377" x2="52" y2="52.1377" gradientUnits="userSpaceOnUse">
<stop stop-color="#46D7F7"/>
<stop offset="1" stop-color="#2B6BDB"/>
</linearGradient>
</defs>
</svg>
